<svg fill="none" xmlns="http://www.w3.org/2000/svg" viewBox="0 0 560 560"><circle cx="280" cy="280" r="280" fill="#E4B05C"/><path d="M447.991 349.23c0-26.348-6.287-48.209-18.9-65.067-13.091-17.334-35.671-33.734-67.542-48.03a283.984 283.984 0 01-16.553-7.486c-32.329-13.7-46.295-26.765-46.295-42.232 0-9.253 3.581-17.394 11.042-23.013 6.505-5.44 15.02-7.505 24.948-7.505 14.324 0 29.165 3.574 45.24 12.31 12.156 6.274 25.406 15.746 40.088 27.182L469 108.68c-18.482-14.296-39.213-25.95-60.918-33.436C383.433 66.388 355.68 62 325.857 62c-50.771 0-92.311 13.879-123.466 40.763-31.235 27.063-45.898 60.619-45.898 103.328 0 26.071 7.501 48.269 22.7 66.417 15.737 19.161 41.839 36.078 77.53 51.485 3.044.695 7.043 2.463 11.619 4.567 19.317 7.962 41.838 18.982 41.838 36.733 0 9.491-4.993 17.453-13.667 22.556-7.043 4.209-16.433 6.671-27.694 6.671-21.546 0-43.669-6.214-64.956-18.862-17.13-10.008-33.682-23.549-49.24-41.121L91 428.771c25.943 21.782 54.452 38.837 83.22 50.433C205.614 492.448 238.082 499 270.829 499c51.408 0 94.301-14.753 128.042-43.464 32.747-28.711 49.12-63.498 49.12-106.306z" fill="#fff"/></svg>