<svg id="Layer_1" xmlns="http://www.w3.org/2000/svg" viewBox="0 0 745.28 220.09">
<style>.st0,.st1{fill:#ffffff}.st1{fill-rule:evenodd;clip-rule:evenodd}</style>
<path class="st0" d="M179.44 144.66c0-13.27-3.16-24.28-9.5-32.77-6.58-8.73-17.93-16.99-33.95-24.19-1.92-.8-4.72-2-8.32-3.77-16.25-6.9-23.27-13.48-23.27-21.27 0-4.66 1.8-8.76 5.55-11.59 3.27-2.74 7.55-3.78 12.54-3.78 7.2 0 14.66 1.8 22.74 6.2 6.11 3.16 12.77 7.93 20.15 13.69L190 23.51c-9.29-7.2-19.71-13.07-30.62-16.84C146.99 2.21 133.04 0 118.05 0c-25.52 0-46.4 6.99-62.06 20.53-15.7 13.63-23.07 30.53-23.07 52.04 0 13.13 3.77 24.31 11.41 33.45 7.91 9.65 21.03 18.17 38.97 25.93 1.53.35 3.54 1.24 5.84 2.3 9.71 4.01 21.03 9.56 21.03 18.5 0 4.78-2.51 8.79-6.87 11.36-3.54 2.12-8.26 3.36-13.92 3.36-10.83 0-21.95-3.13-32.65-9.5-8.61-5.04-16.93-11.86-24.75-20.71L0 184.72c13.04 10.97 27.37 19.56 41.83 25.4 15.78 6.67 32.1 9.97 48.56 9.97 25.84 0 47.4-7.43 64.36-21.89 16.46-14.46 24.69-31.98 24.69-53.54z"/></svg>