<svg fill="none" xmlns="http://www.w3.org/2000/svg" viewBox="0 0 1440 394"><path d="M-84 248.429L1440 2v390H-84V248.429z" fill="#FDC7A3"/><path d="M1154.26 77.853s0-5.227.94-12.882c.37-3.92.93-8.401 1.87-13.069.37-2.427.94-4.854 1.5-7.281.56-2.427 1.12-5.041 1.87-7.468.75-2.427 1.31-5.04 2.25-7.281.94-2.427 1.5-4.854 2.62-6.908.94-2.24 1.69-4.48 2.81-6.348.94-2.053 1.88-3.92 2.81-5.6.94-1.681 1.88-3.175 2.63-4.482.74-1.306 1.68-2.427 2.24-3.36 1.31-1.867 2.06-2.8 2.06-2.8s-.75 1.12-1.87 2.987c-.56.933-1.31 2.053-2.06 3.36s-1.5 2.987-2.44 4.668c-.93 1.68-1.68 3.734-2.62 5.6-.93 2.054-1.68 4.295-2.43 6.535-.94 2.24-1.5 4.667-2.25 7.095-.75 2.427-1.31 4.854-1.87 7.28-.57 2.428-.94 5.042-1.5 7.469-.38 2.427-.75 4.854-1.13 7.28-.56 4.668-.93 9.15-1.31 12.883-.37 7.655-.19 12.696-.19 12.696l-3.93-.374zM1230.13 184.271s1.31-6.161 2.81-15.682c1.5-9.522 3.19-22.218 3.94-34.913.37-6.348.56-12.695.18-18.857a720.11 720.11 0 00-.56-8.588c-.19-2.8-.56-5.227-.94-7.654-.37-2.427-.93-4.481-1.31-6.348-.18-.933-.56-1.867-.75-2.614-.18-.747-.56-1.493-.75-2.24-.37-1.307-.93-2.24-1.31-2.987-.37-.747-.37-1.12-.37-1.12s.19.373.56 1.12c.38.746.75 1.68 1.31 2.987.19.747.56 1.307.75 2.24.19.747.56 1.68.75 2.614a54.294 54.294 0 011.5 6.348c.37 2.427.94 4.854 1.12 7.654.38 2.801.57 5.601.75 8.588.38 5.975.38 12.509 0 18.857-.56 12.882-1.87 25.578-3.37 35.099-1.31 9.522-2.62 15.87-2.62 15.87l-1.69-.374zM475.72 247.375s-.188-22.777 3.746-45.181a137.543 137.543 0 013.747-16.242c.75-2.614 1.686-5.041 2.436-7.282a98.062 98.062 0 012.81-6.161c.936-1.867 2.06-3.547 3.184-4.854.562-.747 1.124-1.307 1.499-1.867.562-.56.937-1.12 1.499-1.493.937-.934 1.686-1.307 2.248-1.681.562-.373.937-.56.937-.56s-.375.187-.75.56c-.562.374-1.311.934-2.248 1.867l-1.499 1.494c-.374.56-1.124 1.12-1.498 1.867-.937 1.307-2.061 2.987-2.998 4.854a99.22 99.22 0 00-2.81 6.161c-.936 2.24-1.686 4.667-2.248 7.281-1.499 5.041-2.435 10.642-3.372 16.243-1.686 11.202-2.435 22.404-2.623 30.992-.187 8.401-.187 14.002-.187 14.002h-1.873zM368 290.316s3.747 2.8 8.43 7.841c1.124 1.307 2.248 2.801 3.56 4.294 1.124 1.681 2.435 3.174 3.559 5.041.562.934 1.124 1.867 1.873 2.801.562.933 1.125 2.053 1.687 2.987 1.124 2.053 2.06 4.107 2.997 6.161.937 2.054 1.686 4.294 2.623 6.348.749 2.24 1.311 4.294 1.873 6.347.562 2.054.937 4.108 1.311 6.161.562 1.867.562 3.921.937 5.601.187 1.681.562 3.361.562 4.668 0 1.493.187 2.614.187 3.734.188 2.053.188 3.174.188 3.174h-1.874V352.3c0-.934 0-2.241-.187-3.547 0-1.307-.187-2.988-.375-4.668-.187-1.68-.187-3.547-.749-5.414a194.928 194.928 0 01-1.124-6.161c-.562-2.054-1.124-4.294-1.686-6.348-.749-2.054-1.499-4.294-2.435-6.348-.937-2.053-1.686-4.294-2.81-6.161a22.006 22.006 0 01-1.499-2.987l-1.686-2.8c-1.124-1.867-2.436-3.548-3.372-5.228-1.124-1.494-2.248-3.174-3.372-4.294-4.871-5.228-8.618-8.028-8.618-8.028zM623.342 333.07c-.749 1.493-1.498 3.36-2.248 5.041-.749 1.867-1.498 3.734-2.248 5.787-.749 2.054-1.498 4.108-2.248 6.348-.749 2.054-1.311 4.294-1.873 6.535-.75 2.24-1.124 4.48-1.686 6.721-.562 2.24-.75 4.48-1.312 6.534-.374 2.054-.562 4.107-.936 6.161-.375 1.867-.375 3.734-.562 5.601-.188 1.68-.375 3.361-.375 4.668v6.721h-1.873s0-1.121.187-3.174c0-.934.187-2.241.187-3.734 0-1.494.188-2.987.375-4.668.187-1.68.375-3.547.749-5.601.375-2.053.562-4.107 1.124-6.161.562-2.053.75-4.294 1.499-6.534.562-2.24 1.124-4.481 1.873-6.721.75-2.241 1.312-4.481 2.061-6.535.75-2.24 1.499-4.294 2.436-6.161.749-2.053 1.686-3.92 2.435-5.787.937-1.867 1.686-3.548 2.435-5.041zM1110.61 297.224s2.06 4.667 4.68 11.762c.57 1.867 1.31 3.734 1.88 5.787.56 2.054 1.31 4.294 1.87 6.535 1.31 4.667 2.44 9.521 3.56 14.562.56 2.427.94 5.041 1.5 7.468.37 2.427.75 4.854 1.12 7.281.38 2.428.56 4.668.75 6.908.19 2.241.38 4.294.56 6.161.19 1.867.38 3.734.38 5.228 0 1.494.19 2.987.19 3.921 0 2.24.18 3.547.18 3.547h-1.87v-3.547-3.921c0-1.494-.19-3.174-.19-5.228 0-1.867-.19-3.92-.37-6.161-.19-2.24-.38-4.48-.75-6.721-.38-2.427-.56-4.854-.94-7.281-.37-2.427-.75-5.041-1.31-7.468-.94-5.041-2.06-9.895-3.18-14.562-.57-2.241-1.13-4.481-1.69-6.535-.56-2.054-1.12-4.107-1.87-5.788-2.44-7.281-4.5-11.948-4.5-11.948zM1367 198s-2.06 4.667-4.68 11.762c-.57 1.867-1.31 3.734-1.88 5.788-.56 2.053-1.31 4.294-1.87 6.534-1.31 4.668-2.44 9.522-3.56 14.563-.56 2.427-.94 5.04-1.5 7.467-.37 2.428-.75 4.855-1.12 7.282-.38 2.427-.56 4.667-.75 6.908-.19 2.24-.38 4.294-.56 6.161-.19 1.867-.38 3.734-.38 5.227 0 1.494-.19 2.987-.19 3.921 0 2.24-.18 3.547-.18 3.547h1.87v-3.547-3.921c0-1.493.19-3.174.19-5.227 0-1.867.18-3.921.37-6.161.19-2.241.38-4.481.75-6.722.38-2.427.56-4.854.94-7.281.37-2.427.75-5.041 1.31-7.468.94-5.041 2.06-9.895 3.18-14.562.57-2.241 1.13-4.481 1.69-6.535.56-2.053 1.12-4.107 1.87-5.787 2.44-7.282 4.5-11.949 4.5-11.949zM40.106 279.321s.187-22.777-3.747-45.181a137.607 137.607 0 00-3.747-16.243c-.749-2.613-1.686-5.041-2.435-7.281a98.636 98.636 0 00-2.81-6.161c-.937-1.867-2.06-3.547-3.185-4.854-.562-.747-1.124-1.307-1.498-1.867-.563-.56-.937-1.12-1.5-1.494-.936-.933-1.685-1.307-2.247-1.68A9.827 9.827 0 0018 194s.375.187.75.56c.561.373 1.31.934 2.247 1.867l1.5 1.494c.374.56 1.123 1.12 1.498 1.867.936 1.307 2.06 2.987 2.997 4.854a98.374 98.374 0 012.81 6.161c.937 2.24 1.686 4.667 2.248 7.281 1.5 5.041 2.436 10.642 3.373 16.243 1.685 11.202 2.435 22.404 2.622 30.992a695.43 695.43 0 01.188 14.002h1.873zM48 286.262s-3.747 2.8-8.43 7.841c-1.124 1.307-2.248 2.801-3.56 4.294-1.124 1.68-2.435 3.174-3.56 5.041-.561.934-1.123 1.867-1.873 2.8-.562.934-1.124 2.054-1.686 2.988-1.124 2.053-2.06 4.107-2.997 6.161-.937 2.053-1.686 4.294-2.623 6.347-.749 2.241-1.311 4.295-1.873 6.348-.562 2.054-.937 4.108-1.311 6.161-.563 1.867-.563 3.921-.937 5.601-.188 1.68-.562 3.361-.562 4.668 0 1.493-.188 2.613-.188 3.734-.187 2.053-.187 3.173-.187 3.173h1.874v-3.173c0-.934 0-2.241.187-3.548 0-1.307.187-2.987.375-4.667.187-1.68.187-3.547.749-5.414.375-1.867.75-3.921 1.124-6.161.562-2.054 1.124-4.294 1.686-6.348.75-2.054 1.499-4.294 2.435-6.348.937-2.054 1.686-4.294 2.81-6.161a22.26 22.26 0 001.5-2.987l1.685-2.801c1.124-1.867 2.436-3.547 3.372-5.227 1.124-1.494 2.248-3.174 3.372-4.294 4.871-5.228 8.618-8.028 8.618-8.028z" fill="#1D262D"/></svg>