<svg fill="none" xmlns="http://www.w3.org/2000/svg" viewBox="0 0 382 249"><path opacity=".3" d="M73.162 228.97c0 10.914-16.432 12.234-36.581 12.234C16.31 241.204 0 239.884 0 228.97c0-10.915 32.863-27.467 53.132-27.467 20.15.12 20.03 16.552 20.03 27.467z" fill="#ED1E79"/><path d="M338.943 189.988c4.677 25.308-49.894 39.821-129.533 54.334-79.638 14.513-130.132-8.036-134.69-33.344-4.677-25.307 38.381-43.659 118.019-58.292 79.518-14.513 141.526 12.115 146.204 37.302z" fill="#CCC" opacity=".3"/><path d="M146.084 92.475v16.672c0 5.038.119 10.915.239 17.152.12 3.119.24 6.357.36 9.596.24 3.238.36 6.596.84 9.595l.36 2.159.12.719-.12-.119c0-.12 0 0-.12-.12s-.24-.24-.36-.24l-.12-.12s-.6-.48-.36-.24h.12s.24.12-.12 0c-.24-.12-.48-.24-.72-.24-.119 0-.239-.12-.359-.12h-.6c-.24 0-.48.12-.48.12-.12.12.12 0 .24-.12.48-.24.96-.6 1.559-1.079 2.279-1.919 4.438-4.318 6.477-6.597 4.198-4.678 7.916-9.236 11.154-13.074a455.556 455.556 0 018.036-9.235c2.039-2.159 3.118-3.359 3.118-3.359s-.959 1.439-2.518 3.838c-1.56 2.519-3.838 5.997-6.357 10.435-2.639 4.318-5.517 9.476-8.995 14.873-1.8 2.759-3.479 5.517-5.877 8.276-.6.72-1.32 1.439-2.159 2.159-.48.36-.96.72-1.919 1.199-.36.24-.96.36-1.679.48h-1.2c-.24 0-.479-.12-.719-.12-.36-.12-.6-.24-.96-.36l-.36-.239h-.12c.24.239-.359-.24-.359-.24l-.12-.12c-.24-.12-.36-.36-.48-.48l-.36-.36c-.24-.24-.36-.48-.48-.719a.917.917 0 01-.24-.6c-.359-.72-.479-1.2-.719-1.679-.36-.96-.6-1.919-.84-2.759a125.277 125.277 0 01-1.919-10.195 885.377 885.377 0 00-1.439-9.715c-.84-6.357-1.439-12.235-2.039-17.272-.48-5.038-.959-9.236-1.199-12.234-.24-2.999-.48-4.678-.48-4.678-.36-3.838 2.519-7.197 6.237-7.556 3.838-.36 7.196 2.518 7.556 6.237.48 0 .48.24.48.48zM130.971 105.309s-.359 1.799-.959 4.918c-.6 3.118-1.439 7.676-2.639 12.954-1.079 5.397-2.398 11.634-4.078 18.351-1.559 6.717-3.358 13.793-5.757 20.87-.599 1.799-1.199 3.598-2.038 5.397-.48.96-.84 1.799-1.56 2.879-.359.48-.719 1.079-1.439 1.679-.12.12-.48.36-.48.36l-.24.12-.599.36c-3.119 1.919-6.117 3.718-9.115 5.397-5.877 3.478-11.394 6.717-16.072 9.475a4922.297 4922.297 0 01-15.712 9.116s5.757-4.438 14.513-10.915c4.317-3.238 9.355-7.196 14.872-11.274 2.758-2.039 5.517-4.198 8.275-6.357l.48-.36.24-.24c.12 0 0 0 0 0l.24-.48c.24-.48.6-1.319.84-2.039a33.304 33.304 0 001.439-4.917c1.679-6.837 2.878-13.914 3.958-20.63 1.079-6.717 1.919-12.954 2.518-18.352.72-5.397 1.2-9.835 1.56-12.953.359-3.119.479-4.918.479-4.918.36-2.999 2.999-5.157 6.117-4.918 3.118.24 5.157 2.999 4.918 6.117.239.12.239.24.239.36z" fill="#000"/><path d="M153.04 88.997s.24 0 .719-.12h.36c.12 0 .24 0 .24-.12.84-.24 2.519-1.08 4.918-2.878a67.976 67.976 0 008.395-7.917c3.239-3.478 6.717-7.796 10.435-12.594 3.718-4.797 7.676-10.314 12.113-16.192 2.279-2.998 4.438-5.997 7.317-9.235.719-.84 1.439-1.68 2.398-2.519.48-.48.96-.96 1.679-1.44.36-.24.72-.48 1.2-.839.24-.12.48-.36.839-.48l.24-.12.48-.24h.12c.36-.12.839-.24 1.199-.36 1.2-.36 3.119-.36 4.558.24 1.439.6 2.399 1.32 2.998 2.04 1.2 1.319 1.44 2.039 1.799 2.638.48 1.2.6 1.92.84 2.759.24 1.44.36 2.519.48 3.598.36 4.318.479 8.276.599 12.234s.36 8.036.6 12.115c.48 8.036 1.319 16.192 2.639 24.228 1.319 8.036 3.118 15.952 5.637 23.628 2.518 7.557 5.517 14.873 9.355 21.47 3.718 6.597 8.276 12.474 13.073 17.512 4.917 5.037 10.195 9.115 15.472 12.234 5.277 3.118 10.434 5.517 15.232 7.196a98.617 98.617 0 0012.593 3.479c3.598.719 6.477 1.199 8.396 1.439 1.919.24 2.998.36 2.998.36s-1.079 0-2.998-.12c-1.919-.12-4.798-.36-8.516-.72-3.598-.48-8.035-1.199-13.073-2.639-4.917-1.319-10.554-3.238-16.191-6.117a78.787 78.787 0 01-17.151-11.634 95.068 95.068 0 01-15.352-17.512 113.484 113.484 0 01-11.634-22.069c-3.238-7.796-5.757-16.072-7.796-24.468a235.578 235.578 0 01-4.678-25.068c-.599-4.198-1.079-8.276-1.559-12.354-.48-3.958-.959-8.036-1.439-11.515-.12-.84-.36-1.679-.48-2.159-.12-.24-.12-.48 0-.12.12.24.12.6.96 1.44.479.48 1.199 1.08 2.398 1.56 1.2.479 2.879.479 3.838.239l1.08-.36c.12 0 0 0 0 0 .6-.36.24-.12.36-.12l.12-.12s.12 0 0 0l-.48.48c-.36.48-.84 1.08-1.319 1.68-1.919 2.518-3.958 5.636-5.877 8.515-3.838 5.997-7.556 11.754-11.035 17.152-7.196 10.675-13.912 19.55-20.629 25.308-3.238 2.878-6.596 5.037-9.355 6.237-.36.12-.72.24-.959.479-.36.12-.6.24-.96.36s-.72.24-.959.36c-.24.12-.48.12-.72.24-.48.12-.72.24-.72.24-5.277 1.559-10.674-1.559-12.233-6.837-1.559-5.277 1.559-10.675 6.836-12.234.12-.24.36-.24.6-.24z" fill="#000"/><path d="M255.826 82.52c29.505 18.112 55.891 54.694 44.617 73.045-11.274 18.351-55.891 11.634-85.395-6.477-29.505-18.111-32.863-40.66-21.589-59.011 11.154-18.232 32.863-25.548 62.367-7.557z" fill="#970102"/><path d="M245.511 77.123c22.549 18.71 30.105 48.816 16.432 71.245-3.718 5.998-8.516 10.915-14.153 14.633 9.355 2.519 18.71 3.719 26.866 3.479 3.718-3.119 6.957-6.957 9.595-11.275 8.276-13.553 8.756-29.985 2.879-44.858-8.516-10.675-19.67-20.75-31.424-27.827-3.478-2.159-6.836-3.958-10.195-5.397z" fill="#CB0101"/><path d="M245.511 77.123c-7.196-3.119-13.792-4.798-19.789-4.918 17.751 18.711 22.788 45.338 10.434 65.609-3.838 6.237-8.875 11.274-14.752 14.992 8.276 4.318 17.391 7.797 26.386 10.195 5.637-3.718 10.555-8.635 14.153-14.633 13.673-22.429 6.237-52.534-16.432-71.245z" fill="#970102"/><path d="M225.722 72.205c-14.393-.6-25.427 6.597-32.383 17.992-11.274 18.351-7.916 41.02 21.588 59.011 2.039 1.2 4.198 2.399 6.357 3.598 5.877-3.838 11.034-8.755 14.752-14.992 12.474-20.271 7.556-46.898-10.314-65.609z" fill="#CB0101"/><path d="M193.459 90.197c-3.958 6.476-6.117 13.553-5.997 20.63a47.148 47.148 0 013.598-7.437c11.274-18.351 32.863-25.667 62.368-7.676 23.387 14.273 44.856 40.3 47.015 59.611 10.914-18.471-15.352-54.813-44.737-72.805-29.384-17.991-51.093-10.675-62.247 7.677z" fill="#534741"/><path d="M163.354 126.899c24.244 0 43.897-14.445 43.897-32.265 0-17.819-19.653-32.264-43.897-32.264-24.243 0-43.897 14.445-43.897 32.264 0 17.82 19.654 32.265 43.897 32.265z" fill="#534741"/><path opacity=".3" d="M203.533 81.56c0 .48 0 .84-.119 1.32-1.8 19.191-21.349 23.509-37.661 22.429-9.235-.599-17.151-2.998-25.067-8.036-6.356-3.958-12.713-9.235-20.389-9.235-.6 2.159-.959 4.318-.959 6.477 0 17.751 19.669 32.264 43.897 32.264 24.227 0 43.897-14.393 43.897-32.264.119-4.558-1.2-8.996-3.599-12.954z" fill="#534741"/><path opacity=".8" d="M328.868 79.882c-4.078 11.874-17.031 13.913-59.369 8.515-21.349-2.518-46.896-3.478-68.124-3.478-21.109-.24-37.781.72-39.82-5.037-2.039-5.158 12.114-16.673 34.422-24.349 22.069-8.036 52.533-12.354 77.84-9.235 25.306 2.758 40.179 9.475 48.094 15.712 7.916 6.357 8.876 12.354 6.957 17.872z" fill="#fff"/><path opacity=".8" d="M305.96 16.672c.36 12.474-11.034 19.07-52.653 28.786-20.869 5.158-45.216 13.194-65.006 20.75-19.789 7.197-35.141 13.913-38.979 9.356-3.718-4.078 5.397-19.79 23.627-34.904 17.871-15.352 44.857-29.985 69.564-35.982C267.22-1.68 283.412-.6 293.007 2.398c9.834 3.24 12.713 8.397 12.953 14.274z" fill="#fff"/><path d="M177.987 109.147s.24-.12.839-.239c.24-.12.6-.12.96-.24 0 0 .12-.12.24-.12 0 .12.479-.24.719-.36.36-.12.72-.36 1.2-.72.959-.48 2.039-1.319 3.358-2.279 2.639-2.039 5.757-5.157 9.235-9.115 3.478-3.958 7.316-8.756 11.394-14.153 4.078-5.398 8.396-11.395 13.433-17.992 1.319-1.679 2.639-3.358 4.318-5.157l.6-.72.719-.72.72-.72.959-.839.48-.36.72-.48.719-.48.24-.12c.48-.24-.719.24.96-.479l.24-.12a9.984 9.984 0 012.638-.36c.6 0 1.08.12 1.679.24.48.12.84.24 1.2.36.479.12.719.24.959.48 1.08.6 1.679 1.08 2.159 1.559.96.84 1.439 1.56 1.799 2.159.48.6.84 1.2 1.08 1.8.599 1.079 1.199 2.158 1.679 3.118 1.079 2.039 1.919 4.078 2.878 5.997 3.598 7.916 7.076 16.072 11.034 24.108a353.33 353.33 0 0012.594 23.989c8.995 15.712 19.669 30.465 31.423 42.699 5.877 6.117 11.994 11.514 18.231 16.192 6.236 4.678 12.473 8.636 18.59 11.755 6.117 3.118 11.874 5.517 17.151 7.316 5.277 1.799 9.955 2.999 13.913 3.718 3.958.84 7.076 1.32 9.235 1.559l3.238.36s-1.199 0-3.358-.12-5.277-.36-9.355-.959c-3.958-.6-8.875-1.44-14.273-2.879-5.517-1.439-11.514-3.478-17.99-6.237a131.144 131.144 0 01-19.91-10.795c-6.716-4.438-13.433-9.595-20.029-15.472-13.073-11.755-25.067-26.387-35.502-41.86-5.277-7.796-10.074-15.832-14.632-23.749-4.558-7.916-8.636-16.072-12.713-23.508-.96-1.92-2.039-3.718-2.999-5.398-.48-.84-.959-1.679-1.439-2.278-.24-.36-.48-.6-.6-.84s-.36-.36-.24-.12c.12.12.24.24.96.72.12.12.24.12.6.24.239.12.479.12.839.24s.72.12 1.199.12c.72 0 1.56-.12 2.279-.36.12 0 0 0 0 0h-.12c1.56-.72.48-.24.84-.36h.12s.12 0 .12-.12l-.12.12c0 .12-.12.12-.24.24l-.36.36-.36.36-.359.479c-.96 1.2-2.159 2.759-3.119 4.318-4.198 6.237-8.156 12.714-11.994 18.59-3.838 5.878-7.556 11.275-11.154 15.953-3.718 4.678-7.196 8.756-10.674 11.994-1.799 1.56-3.478 2.999-5.157 4.198-.84.6-1.68 1.08-2.519 1.56-.84.479-1.439.839-2.519 1.319-.959.36-1.679.72-2.399.96-.359.12-.719.239-.959.359-.48.12-.84.24-.84.24-5.157 1.679-10.794-1.199-12.473-6.357-1.679-5.157 1.199-10.794 6.357-12.474 1.079 0 1.319 0 1.559-.12z" fill="#1A1A1A"/><path d="M104.225 152.806c19.939 0 36.102-14.552 36.102-32.504 0-17.952-16.163-32.504-36.102-32.504-19.938 0-36.1 14.552-36.1 32.504 0 17.952 16.162 32.504 36.1 32.504z" fill="#534741"/><path opacity=".3" d="M136.009 104.829c.839 5.158.599 10.555-1.08 15.353-3.238 9.356-9.115 18.231-18.23 22.789-8.636 4.318-17.031 6.597-26.866 6.717h-.84c4.678 2.039 9.955 3.118 15.472 3.118 19.91 0 36.101-14.513 36.101-32.504-.239-5.637-1.799-10.915-4.557-15.473z" fill="#534741"/><path d="M90.193 123.66c-4.078-3.358-10.075-2.758-13.433 1.2 0 0-.12.12-.24.36-.24.24-.36.599-.72.959-.48.84-1.2 1.919-2.159 3.359-1.679 2.878-3.958 6.956-6.236 12.114-1.2 2.519-2.28 5.277-3.479 8.276-1.079 2.998-2.278 6.117-3.238 9.355a77.585 77.585 0 01-1.559 4.918c-.48 1.679-.96 3.358-1.32 5.157-.479 1.68-.839 3.479-1.199 5.278-.24.839-.36 1.799-.6 2.639l-.48 2.638c-.719 3.479-1.198 7.077-1.558 10.555-.24 1.799-.36 3.479-.6 5.158l-.36 5.037a135.85 135.85 0 00-.36 9.596v4.438c0 1.439 0 2.758.12 4.078v.239c.72-.119 1.56-.119 2.28-.119h.599c.12-1.32.36-2.639.6-3.959l.36-2.159.36-2.159c.479-2.878 1.199-5.997 1.918-9.115.36-1.559.72-3.119 1.2-4.798.48-1.559.84-3.238 1.319-4.797.96-3.239 2.039-6.477 3.238-9.716l.84-2.399c.36-.839.6-1.559.96-2.399.599-1.559 1.319-3.118 1.918-4.677.6-1.559 1.44-2.999 2.04-4.438l2.158-4.318c1.44-2.759 2.998-5.397 4.438-7.916 1.439-2.399 2.878-4.678 4.317-6.717 2.759-4.078 5.278-7.316 7.077-9.355.96-1.08 1.559-1.8 2.039-2.279.24-.24.36-.48.48-.48s.24-.24.12-.12c3.717-4.078 3.238-10.075-.84-13.434z" fill="#534741"/><path d="M98.708 94.634S93.311 27.227 153.4 9.236M78.679 99.792s-19.79-48.697 28.185-83.84" stroke="#000" stroke-width="1.832" stroke-miterlimit="10" stroke-linecap="round"/><path d="M98.708 123.061c8.81 0 15.952-6.766 15.952-15.113 0-8.346-7.142-15.113-15.952-15.113-8.81 0-15.951 6.767-15.951 15.113 0 8.347 7.141 15.113 15.951 15.113z" fill="#fff"/><path d="M70.403 123.061c7.551 0 13.673-5.8 13.673-12.954 0-7.154-6.122-12.954-13.673-12.954s-13.673 5.8-13.673 12.954c0 7.154 6.122 12.954 13.673 12.954z" fill="#fff"/><path d="M96.79 114.665c2.398 1.679 3.478 4.438 2.398 5.997-1.08 1.559-3.958 1.439-6.477-.24-2.398-1.679-3.478-4.438-2.398-5.997 1.08-1.559 3.958-1.439 6.476.24zM69.923 115.744c2.16 1.44 3.119 3.718 2.16 5.038-.96 1.439-3.359 1.319-5.518 0-2.159-1.32-3.118-3.718-2.159-5.038.84-1.439 3.358-1.439 5.517 0z" fill="#000"/><path d="M150.041 114.785s.36 2.399 1.08 6.716c.6 4.318 1.559 10.315 2.399 17.752.839 7.316 1.919 15.952 2.398 25.308.12 2.399.24 4.677.24 7.196s-.12 4.918-.599 7.796c-.12.72-.24 1.44-.6 2.279-.36.84-.6 1.68-1.799 2.879-.12.12-.36.24-.48.36l-.12.12-.36.24-.719.479-1.44 1.08c-1.919 1.439-3.838 2.878-5.757 4.438-15.471 11.994-30.823 24.228-42.337 33.344a8362.679 8362.679 0 00-19.19 15.232s7.196-6.596 17.99-16.552c10.795-9.955 25.307-23.149 39.939-36.342a118.22 118.22 0 015.637-4.918c.48-.36.96-.839 1.44-1.199l.719-.6.36-.24.24-.12-.12.12c-.24.36-.12.12 0-.24s.12-.839.24-1.319c.24-2.039.12-4.318 0-6.597-.12-2.279-.36-4.558-.6-6.717-1.079-8.995-2.638-17.271-4.078-24.468-1.439-7.196-2.638-13.074-3.598-17.272-.959-4.078-1.439-6.476-1.439-6.476v-.12c-.72-2.999 1.199-5.878 4.078-6.597 2.998-.72 5.877 1.199 6.596 4.078-.239.12-.12.24-.12.36zM168.152 111.906s.72 2.999 2.159 8.396c1.319 5.277 3.358 12.834 5.637 21.949 2.399 9.116 5.157 19.671 8.395 30.946.84 2.758 1.68 5.637 2.519 8.515.84 2.879 1.799 5.758 2.759 8.396.12.36.24.6.36.96l.239.48.12.24c0 .119.12.359 0 0l-.24-.24s-.119 0-.119-.12c-.6-.48-.12-.12-.24-.24h.12c.12.12.359.24.479.24s.12 0 .24.12c.12 0 .12 0 .24.12l.48.24c.36.119.6.359.959.479l2.039.84c2.879 1.199 5.757 2.279 8.636 3.358 11.634 4.318 23.627 8.276 34.782 11.755 11.274 3.478 21.828 6.357 30.943 8.396 4.558 1.079 8.756 1.919 12.594 2.638 3.718.72 7.076 1.08 9.715 1.44 2.758.239 4.917.359 6.356.359h2.279s-.839 0-2.279.12c-1.439.12-3.598.12-6.356 0-2.759-.12-6.117-.359-9.955-.719s-8.156-.96-12.833-1.68c-9.355-1.439-20.15-3.718-31.664-6.356-11.514-2.639-23.747-5.758-35.861-9.356-2.998-.84-6.117-1.799-9.115-2.879l-2.279-.839-1.199-.48-.6-.24c-.12 0-.48-.24-.84-.36l-.839-.359-.6-.24c-1.079-.72-1.919-1.919-2.039-2.159l-.48-.72-.359-.6c-.24-.359-.36-.839-.6-1.199-1.439-2.999-2.519-5.877-3.598-8.756-1.08-2.878-2.159-5.637-3.119-8.516-4.077-11.154-7.556-21.589-10.674-30.465-2.998-8.996-5.517-16.432-7.196-21.59-1.679-5.277-2.639-8.276-2.639-8.276-1.199-3.598.84-7.556 4.438-8.755 3.598-1.2 7.556.839 8.755 4.437.36.36.36.48.48.72z" fill="#1A1A1A"/></svg>